HIERARCHY
ROOT Hips
{
	OFFSET 0.000000 89.005402 0.000000
	CHANNELS 6 Xposition Yposition Zposition Xrotation Yrotation Zrotation
	JOINT Spine
	{
		OFFSET 0.116900 10.681000 0.373400
		CHANNELS 3 Xrotation Yrotation Zrotation
		JOINT Spine1
		{
			OFFSET 0.000000 13.840401 0.053500
			CHANNELS 3 Xrotation Yrotation Zrotation
			JOINT Spine2
			{
				OFFSET 0.000000 14.712700 -0.366200
				CHANNELS 3 Xrotation Yrotation Zrotation
				JOINT Neck
				{
					OFFSET 0.000000 35.415497 -3.314200
					CHANNELS 3 Xrotation Yrotation Zrotation
					JOINT Head
					{
						OFFSET 0.000000 16.899200 1.218300
						CHANNELS 3 Xrotation Yrotation Zrotation
						JOINT HeadTop_End
						{
							OFFSET 0.000000 22.206207 2.192500
							CHANNELS 3 Xrotation Yrotation Zrotation
							End Site
							{
								OFFSET 0.000000 22.314178 0.000000
							}
						}
					}
				}
				JOINT LeftShoulder
				{
					OFFSET 12.896400 26.716293 -4.548400
					CHANNELS 3 Xrotation Yrotation Zrotation
					JOINT LeftArm
					{
						OFFSET 19.027000 -4.857010 -1.718400
						CHANNELS 3 Xrotation Yrotation Zrotation
						JOINT LeftForeArm
						{
							OFFSET 24.179897 0.000000 0.000000
							CHANNELS 3 Xrotation Yrotation Zrotation
							JOINT LeftHand
							{
								OFFSET 27.156403 0.000000 0.000000
								CHANNELS 3 Xrotation Yrotation Zrotation
								JOINT LeftHandIndex1
								{
									OFFSET 16.441200 0.000000 0.000000
									CHANNELS 3 Xrotation Yrotation Zrotation
									JOINT LeftHandIndex2
									{
										OFFSET 4.821899 0.000000 0.000000
										CHANNELS 3 Xrotation Yrotation Zrotation
										JOINT LeftHandIndex3
										{
											OFFSET 6.386497 0.000000 0.000000
											CHANNELS 3 Xrotation Yrotation Zrotation
											JOINT LeftHandIndex4
											{
												OFFSET 5.188988 0.000000 0.000000
												CHANNELS 3 Xrotation Yrotation Zrotation
												End Site
												{
													OFFSET -0.178703 5.185913 0.000177
												}
											}
										}
									}
								}
								JOINT LeftHandThumb1
								{
									OFFSET 6.534897 -5.032593 5.900300
									CHANNELS 3 Xrotation Yrotation Zrotation
									JOINT LeftHandThumb2
									{
										OFFSET 3.818176 -2.204422 2.204423
										CHANNELS 3 Xrotation Yrotation Zrotation
										JOINT LeftHandThumb3
										{
											OFFSET 3.252098 -1.877594 1.877601
											CHANNELS 3 Xrotation Yrotation Zrotation
											JOINT LeftHandThumb4
											{
												OFFSET 5.251778 -3.032120 3.032117
												CHANNELS 3 Xrotation Yrotation Zrotation
												End Site
												{
													OFFSET 0.000023 6.780014 0.000000
												}
											}
										}
									}
								}
							}
						}
					}
				}
				JOINT RightShoulder
				{
					OFFSET -12.896300 26.716293 -4.548400
					CHANNELS 3 Xrotation Yrotation Zrotation
					JOINT RightArm
					{
						OFFSET -19.027000 -4.857010 -1.718400
						CHANNELS 3 Xrotation Yrotation Zrotation
						JOINT RightForeArm
						{
							OFFSET -24.179897 0.000000 0.000000
							CHANNELS 3 Xrotation Yrotation Zrotation
							JOINT RightHand
							{
								OFFSET -27.156403 0.000000 0.000000
								CHANNELS 3 Xrotation Yrotation Zrotation
								JOINT RightHandThumb1
								{
									OFFSET -6.591202 -4.852203 5.988100
									CHANNELS 3 Xrotation Yrotation Zrotation
									JOINT RightHandThumb2
									{
										OFFSET -3.818176 -2.204422 2.204423
										CHANNELS 3 Xrotation Yrotation Zrotation
										JOINT RightHandThumb3
										{
											OFFSET -3.252098 -1.877594 1.877601
											CHANNELS 3 Xrotation Yrotation Zrotation
											JOINT RightHandThumb4
											{
												OFFSET -5.251778 -3.032120 3.032117
												CHANNELS 3 Xrotation Yrotation Zrotation
												End Site
												{
													OFFSET -0.000023 6.780014 0.000000
												}
											}
										}
									}
								}
								JOINT RightHandIndex1
								{
									OFFSET -16.029404 0.000000 0.000000
									CHANNELS 3 Xrotation Yrotation Zrotation
									JOINT RightHandIndex2
									{
										OFFSET -5.213303 0.000000 0.000000
										CHANNELS 3 Xrotation Yrotation Zrotation
										JOINT RightHandIndex3
										{
											OFFSET -6.386528 0.000000 0.000000
											CHANNELS 3 Xrotation Yrotation Zrotation
											JOINT RightHandIndex4
											{
												OFFSET -5.189026 0.000000 0.000000
												CHANNELS 3 Xrotation Yrotation Zrotation
												End Site
												{
													OFFSET 0.236702 5.183624 0.001972
												}
											}
										}
									}
								}
							}
						}
					}
				}
			}
		}
	}
	JOINT LeftUpLeg
	{
		OFFSET 14.073000 -7.904099 -1.463000
		CHANNELS 3 Xrotation Yrotation Zrotation
		JOINT LeftLeg
		{
			OFFSET -0.109806 -34.073280 4.093200
			CHANNELS 3 Xrotation Yrotation Zrotation
			JOINT LeftFoot
			{
				OFFSET 0.109806 -29.899420 -6.319000
				CHANNELS 3 Xrotation Yrotation Zrotation
				JOINT LeftToeBase
				{
					OFFSET 1.551100 -14.988700 20.535801
					CHANNELS 3 Xrotation Yrotation Zrotation
					JOINT LeftToe_End
					{
						OFFSET 0.221200 0.570800 13.248301
						CHANNELS 3 Xrotation Yrotation Zrotation
						End Site
						{
							OFFSET 0.000000 13.262435 0.000000
						}
					}
				}
			}
		}
	}
	JOINT RightUpLeg
	{
		OFFSET -13.839300 -7.904099 -1.463000
		CHANNELS 3 Xrotation Yrotation Zrotation
		JOINT RightLeg
		{
			OFFSET 0.109694 -34.073219 4.093300
			CHANNELS 3 Xrotation Yrotation Zrotation
			JOINT RightFoot
			{
				OFFSET -0.109694 -29.899384 -6.319200
				CHANNELS 3 Xrotation Yrotation Zrotation
				JOINT RightToeBase
				{
					OFFSET -1.551100 -14.988700 20.535801
					CHANNELS 3 Xrotation Yrotation Zrotation
					JOINT RightToe_End
					{
						OFFSET -0.221200 0.570900 13.248299
						CHANNELS 3 Xrotation Yrotation Zrotation
						End Site
						{
							OFFSET 0.000000 13.262440 0.000000
						}
					}
				}
			}
		}
	}
}
MOTION
Frames: 7
Frame Time: 0.033333
-1.627211 75.632812 0.471458 3.014643 -58.248782 6.509707 11.191463 0.114531 -2.728280 8.434586 0.027706 -5.592322 8.457056 0.027852 -5.591868 -21.555322 25.063367 12.062591 -0.294265 25.465761 -3.209146 0.000000 -0.000000 -0.000000 -6.221659 -11.503830 -4.023819 -23.062093 9.568610 -36.639658 0.046145 -43.169306 -0.011125 22.743753 -5.685729 15.979320 13.340876 -1.006677 10.682265 -0.161633 0.299824 -31.105651 -0.143055 0.303436 -32.256258 0.000000 0.000001 -0.000000 -1.064235 -7.954915 8.490094 2.381422 19.988385 -2.051420 0.808202 1.237769 2.631729 -0.000001 0.000001 -0.000001 -5.488222 10.658235 2.466531 -41.473674 -26.755516 30.079142 24.955223 111.863117 -23.308260 -8.702471 12.422903 -9.802104 0.264990 10.061115 -10.888491 1.380596 -17.415833 3.019166 3.334854 -13.256627 -8.260567 -0.000001 -0.000003 0.000001 19.443607 11.174443 -13.340199 -0.118681 -0.322704 18.035611 -0.092000 -0.281697 23.256623 0.000000 -0.000004 -0.000001 -33.869901 9.509708 26.672930 43.333541 -9.055915 -10.188936 -11.341751 -2.055248 -9.956794 -0.327515 1.229849 0.836848 -0.000000 -0.000002 -0.000000 -30.288597 -7.913061 -28.825823 49.541275 4.576332 -7.142109 -22.971699 0.973437 23.069746 -0.322768 -0.997393 -0.837131 -0.000000 -0.000001 0.000000 
-1.756332 75.895821 0.697408 2.420317 -57.978682 5.495942 11.031002 -0.003547 -2.383370 8.109256 -0.163321 -4.862323 8.131723 -0.163199 -4.861857 -24.570917 24.052043 12.649831 -0.540790 24.753212 -0.738335 -0.000000 -0.000000 0.000001 -6.328445 -11.140319 -3.826981 -20.768891 9.782843 -35.605756 -0.635942 -45.369385 -0.016279 21.986195 -6.605956 13.488855 13.922477 -1.371862 7.708855 -0.182926 0.287348 -33.973771 -0.155828 0.299571 -34.721991 -0.000000 -0.000000 -0.000000 -1.222220 -8.221712 9.901873 2.524328 19.682496 -2.068858 1.234896 1.956334 3.417756 -0.000000 0.000000 0.000000 -5.497850 9.849387 1.146636 -38.579869 -25.943049 30.780770 19.498467 111.237608 -18.709217 -8.715686 11.236397 -7.515123 0.244683 10.637863 -10.290333 1.215071 -16.990685 3.181206 3.252969 -12.766384 -8.038655 0.000001 -0.000003 0.000002 19.317023 11.749542 -13.859363 -0.115123 -0.297580 17.755843 -0.085086 -0.276177 22.515836 -0.000000 0.000002 -0.000002 -33.412326 9.268566 26.661473 43.183123 -9.076768 -9.677550 -11.477664 -1.954255 -10.189834 -0.327515 1.229842 0.836850 -0.000000 -0.000002 -0.000000 -29.095701 -8.674586 -28.777332 48.348437 4.680307 -6.498417 -22.642839 1.032050 22.989496 -0.199198 -0.979099 -0.832380 -0.000000 -0.000002 0.000000 
-2.192529 76.573830 1.237004 1.619273 -57.227519 4.182390 10.938811 -0.353246 -2.132569 7.913265 -0.823292 -4.292400 7.935741 -0.823210 -4.291924 -27.190987 23.374637 13.708849 -0.578202 24.789203 1.073739 0.000000 0.000000 -0.000000 -7.624937 -10.279956 -3.026840 -15.004923 10.758892 -33.043024 -2.684808 -51.065284 -0.406699 19.954398 -8.623171 6.888804 15.083749 -2.418512 1.592544 -0.219551 0.289792 -39.714036 -0.183505 0.305574 -39.692408 -0.000002 -0.000000 -0.000000 -1.353556 -8.594349 12.694806 2.740991 18.920498 -2.093531 1.926154 3.229068 4.994070 -0.000001 -0.000001 0.000000 -6.847962 7.797405 -1.921405 -31.164128 -23.257079 31.965378 4.915082 110.215238 -6.854269 -8.334606 8.396820 -1.891262 0.100847 11.736912 -9.077822 0.835798 -16.028384 3.559724 3.060431 -11.652312 -7.532818 0.000006 0.000001 -0.000000 18.997744 12.948302 -15.123746 -0.110618 -0.298199 17.013513 -0.065004 -0.262641 20.725383 -0.000000 0.000001 0.000001 -32.058613 8.988080 26.206884 42.026113 -8.958976 -8.999515 -11.446876 -1.783519 -10.420196 -0.327502 1.229840 0.836836 0.000000 -0.000002 0.000000 -26.427949 -10.044690 -28.758518 45.514745 4.603380 -5.403984 -22.003277 1.042569 23.016964 -0.156890 -0.979835 -0.831674 -0.000000 0.000000 -0.000000 
-2.831391 77.564842 1.986603 0.732489 -56.093376 2.749869 10.708218 -0.461710 -1.910907 7.450863 -0.997970 -3.791197 7.473329 -0.997828 -3.790732 -27.899815 22.517332 13.646184 -0.526033 24.041381 2.209218 -0.000000 0.000000 -0.000000 -9.675395 -9.136491 -1.517992 -7.459758 12.912592 -29.859541 -6.541594 -58.868123 -2.183199 17.155412 -10.581769 -2.479671 16.240291 -4.110253 -5.565083 -0.264902 0.294122 -46.028023 -0.219689 0.310226 -45.131797 -0.000001 -0.000001 -0.000000 -0.559967 -8.964743 15.330298 2.821255 17.598969 -2.035055 2.549778 4.328028 6.948220 -0.000001 0.000001 0.000000 -9.604110 5.228487 -4.846737 -22.044927 -18.556500 31.154535 -14.275574 109.994220 8.315528 -7.039663 5.084631 5.282701 -0.451134 13.320585 -7.550853 0.252125 -14.587288 4.137470 2.754007 -9.978046 -6.767836 0.000002 -0.000004 -0.000001 18.503177 14.568653 -17.408684 -0.095836 -0.295530 15.477902 -0.036484 -0.244944 17.607826 0.000000 -0.000002 -0.000000 -30.208694 9.129447 25.766226 39.808006 -9.354091 -8.553331 -11.020096 -1.650866 -10.282556 -0.318147 1.230019 0.836684 -0.000000 -0.000000 0.000000 -22.155756 -11.096560 -27.810268 41.223398 3.026629 -4.887723 -20.913503 0.791769 24.048623 -0.169801 -0.979745 -0.887922 0.000000 -0.000002 0.000000 
-3.579854 78.749634 2.828573 -0.140816 -54.678454 1.358232 10.389064 -0.418482 -1.775012 6.816009 -0.875986 -3.468771 6.838506 -0.875891 -3.468303 -26.453956 21.284408 13.762548 0.099885 23.241708 1.397517 -0.000000 0.000000 -0.000000 -12.302689 -7.997117 0.805558 0.045421 16.174950 -26.821933 -13.513837 -67.264126 -7.112824 14.383257 -11.602050 -13.039308 16.717294 -5.547320 -9.842718 -0.298867 0.283786 -48.806268 -0.253844 0.296520 -47.225454 -0.000002 0.000001 0.000001 1.411576 -9.456936 16.596537 2.524014 15.659161 -1.836979 2.754674 4.155062 8.628174 0.000000 -0.000001 -0.000000 -13.428878 2.888315 -8.623495 -12.927693 -13.495094 29.360306 -31.928136 110.543121 21.335856 -5.006346 2.380523 12.227272 -1.917585 15.472670 -6.308215 -0.477291 -12.830618 4.860531 2.351292 -7.932558 -5.824010 -0.000000 -0.000003 0.000001 17.947222 16.227611 -20.705951 -0.077943 -0.293205 13.027946 -0.001810 -0.227585 13.209760 -0.000001 -0.000000 0.000000 -28.197123 9.570395 25.348130 36.908980 -10.338490 -8.320326 -10.009444 -1.548401 -9.668718 -0.448199 1.228621 0.624405 0.000000 0.000002 0.000000 -16.945395 -11.583775 -26.113760 36.066947 0.238480 -4.869761 -19.097608 0.579400 25.456030 -0.568793 -0.973605 -0.918164 0.000000 0.000002 0.000000 
-4.337977 79.995529 3.647225 -0.933430 -53.088605 0.135033 10.073672 -0.323285 -1.656290 6.189537 -0.655148 -3.187717 6.212025 -0.655030 -3.187252 -23.983769 19.923366 14.378105 0.641920 22.525371 -0.511533 0.000000 0.000000 0.000000 -15.490003 -7.036789 2.977681 5.296915 19.901209 -23.062002 -26.205015 -74.540409 -18.108855 12.532337 -11.270071 -22.984710 16.331758 -5.733686 -7.943042 -0.302031 0.236093 -44.796386 -0.271753 0.244437 -42.817288 -0.000004 -0.000001 -0.000001 3.126735 -10.010010 17.827373 1.730654 13.166240 -1.558962 2.332827 1.904020 9.413134 0.000000 -0.000001 0.000000 -17.961910 1.474696 -12.790859 -5.358724 -8.991118 27.440387 -43.553914 110.393643 28.611589 -3.140069 0.842130 17.046685 -4.663159 18.106113 -5.982220 -1.276078 -10.964857 5.653015 1.888257 -5.758415 -4.807038 0.000000 0.000003 -0.000000 17.434364 17.436812 -24.302218 -0.056748 -0.287378 10.205493 0.034702 -0.210086 8.294782 -0.000000 0.000001 -0.000000 -26.047656 9.997253 24.771274 33.682917 -11.248877 -8.279180 -8.875328 -1.545758 -8.501162 -0.639908 1.228160 0.292064 0.000000 0.000001 -0.000000 -11.595494 -11.681139 -24.197144 30.622719 -2.953368 -5.099477 -16.607171 0.649571 26.645290 -1.476729 -0.956031 -1.066997 -0.000000 -0.000001 0.000000 
-5.052857 81.315468 4.408334 -1.651704 -51.155071 -0.799972 9.778260 -0.240423 -1.465461 5.602049 -0.462843 -2.802788 5.624525 -0.462739 -2.802318 -20.490231 18.835956 14.466810 0.860845 21.527932 -2.632533 0.000000 -0.000000 -0.000001 -18.931575 -6.244725 6.456964 3.561470 24.079808 -16.782239 -45.066824 -80.085252 -35.528411 12.675891 -9.383921 -29.457479 15.334210 -5.248344 -0.976352 -0.265031 0.166164 -35.426999 -0.254364 0.167080 -33.236203 0.000002 -0.000000 0.000000 3.107857 -9.381300 21.617673 0.546505 10.363636 -1.393128 1.259333 -2.269139 9.011252 0.000001 -0.000001 0.000000 -22.632563 1.264167 -17.645654 -0.424985 -5.703552 26.305258 -46.224545 107.804318 28.158321 -2.647226 -0.000428 19.049809 -8.155433 20.411790 -6.855774 -2.073739 -9.161075 6.444727 1.405235 -3.656935 -3.807662 -0.000000 -0.000001 0.000000 16.954210 17.773418 -27.235975 -0.032932 -0.280203 7.826219 0.071109 -0.191319 3.872347 -0.000000 -0.000000 -0.000000 -24.105401 10.056418 24.158777 30.143363 -12.052134 -8.235415 -6.235117 -1.690218 -8.654353 -1.653707 1.226500 0.163938 0.000000 -0.000001 0.000000 -6.400551 -11.482267 -22.467550 25.287500 -5.829567 -5.348327 -13.599533 1.111097 27.309231 -3.496927 -0.886385 -1.170230 0.000000 -0.000001 0.000000 
